# xmcd
#
# Track frame offsets:
#	150
#	27732
#	55922
#	78867
#	97387
#	114085
#	137232
#	161375
#	179942
#	201097
#
# Disc length: 2988 seconds
#
# Revision: 1
# Processed by: cddbd v1.5.2PL0 Copyright (c) Steve Scherf et al.
# Submitted via: EZCDAudioConverter 8.0.2.1
#
DISCID=8d0baa0a
DTITLE=Thanh Hà - Hạ Trắng
DYEAR=1995
DGENRE=World Pop
TTITLE0=Niệm khúc cuối
TTITLE1=Gọi người yêu dấu
TTITLE2=Từ lúc em đi
TTITLE3=Xin đừng khóc
TTITLE4=Mưa
TTITLE5=Tôi muốn quên anh
TTITLE6=Khi người yêu tôi khóc
TTITLE7=Hạ Trắng
TTITLE8=Tuyệt tình
TTITLE9=Biệt ly
EXTD=
EXTT0=
EXTT1=
EXTT2=
EXTT3=
EXTT4=
EXTT5=
EXTT6=
EXTT7=
EXTT8=
EXTT9=
PLAYORDER=
